<svg xmlns="http://www.w3.org/2000/svg" xmlns:xlink="http://www.w3.org/1999/xlink" viewBox="361 380.1001 486.8138 110.0808" width="417" height="94.29415024800036" x="41.5px" y="202.8529px" preserveAspectRatio="none"><defs/><style>.aD6z1nYkhcolor354a9507-f4a7-4bf0-acae-a46bee352e0e {fill:#000000;fill-opacity:1;}.aLgOaV3zRcolors-0354a9507-f4a7-4bf0-acae-a46bee352e0e {fill:#000000;fill-opacity:1;}.icon2354a9507-f4a7-4bf0-acae-a46bee352e0e {fill:#C2EF7E;fill-opacity:1;}.icon3-str354a9507-f4a7-4bf0-acae-a46bee352e0e {stroke:#6B7D3B;stroke-opacity:1;}.icon3354a9507-f4a7-4bf0-acae-a46bee352e0e {fill:#6B7D3B;fill-opacity:1;}</style><g opacity="1" transform="rotate(0 532.1863 398.7845)">
<svg width="315.6275" height="72.7121" x="532.1863" y="398.7845" version="1.1" preserveAspectRatio="none" viewBox="1.2 -28.36 155.92000000000002 35.92">
  <g transform="matrix(1 0 0 1 0 0)" class="aD6z1nYkhcolor354a9507-f4a7-4bf0-acae-a46bee352e0e"><path id="id-354a9507-f4a7-4bf0-acae-a46bee352e0eD6z1nYkh8" d="M13.44-28.36Q16.36-28.36 18.58-27.54Q20.80-26.72 20.80-25.32Q20.80-23.92 19.74-21.86Q18.68-19.80 17.96-19.80L17.96-19.80Q17.76-19.80 17.50-20.02Q17.24-20.24 16.30-20.50Q15.36-20.76 14.68-20.76L14.68-20.76Q12.36-20.76 10.94-19.12Q9.52-17.48 9.52-14.10Q9.52-10.72 10.98-9.08Q12.44-7.44 14.68-7.44L14.68-7.44Q15.60-7.44 16.74-7.70Q17.88-7.96 18.36-8.44L18.36-8.44Q18.44-8.52 18.68-8.52Q18.92-8.52 19.58-7.62Q20.24-6.72 20.80-5.26Q21.36-3.80 21.36-3L21.36-3Q21.36-1.44 18.96-0.52Q16.56 0.40 13.28 0.40L13.28 0.40Q8 0.40 4.60-3.32Q1.20-7.04 1.20-13.82Q1.20-20.60 4.70-24.48Q8.20-28.36 13.44-28.36L13.44-28.36Z M26.76-14.52L26.76-14.52Q25.64-16.52 25.64-17.78Q25.64-19.04 26.32-19.40L26.32-19.40Q28.60-20.40 32.58-20.40Q36.56-20.40 38.20-18.54Q39.84-16.68 39.84-13.04L39.84-13.04L39.84-6.72L41.20-6.72Q41.88-6.72 42.26-5.92Q42.64-5.12 42.64-3.72Q42.64-2.32 41.94-0.96Q41.24 0.40 40.04 0.40L40.04 0.40Q37.88 0.40 36.56-0.76L36.56-0.76Q35.96-1.24 35.64-1.92L35.64-1.92Q33.80 0.40 29.92 0.40L29.92 0.40Q27 0.40 25-1.68Q23-3.76 23-6.60L23-6.60Q23-13.12 30.80-13.12L30.80-13.12L33-13.12L33-13.52Q33-14.56 32.66-14.86Q32.32-15.16 31.08-15.16L31.08-15.16Q29.56-15.16 26.76-14.52ZM29.96-7.16L29.96-7.16Q29.96-6.28 30.44-5.82Q30.92-5.36 31.66-5.36Q32.40-5.36 33-5.96L33-5.96L33-9.04L31.88-9.04Q29.96-9.04 29.96-7.16Z M53.52 0L53.52 7.28Q53.52 7.56 50.10 7.56Q46.68 7.56 46.68 7.28L46.68 7.28L46.68-13.32L45.32-13.32Q44.36-13.32 44.00-15.08L44.00-15.08Q43.88-15.64 43.88-16.52Q43.88-17.40 44.44-18.60L44.44-18.60Q45.24-20.36 47.00-20.36L47.00-20.36Q48.16-20.36 49.14-19.82Q50.12-19.28 50.50-18.82Q50.88-18.36 50.88-18.28L50.88-18.28Q53.56-20.36 56.68-20.36Q59.80-20.36 62.04-17.94Q64.28-15.52 64.28-10.46Q64.28-5.40 62.04-2.62Q59.80 0.16 56.36 0.16L56.36 0.16Q54.80 0.16 53.52 0L53.52 0ZM55.16-13.36L55.16-13.36Q54.48-13.36 53.84-12.92L53.84-12.92L53.84-5.84Q54.52-5.76 54.94-5.76Q55.36-5.76 55.60-5.76L55.60-5.76Q57.24-5.92 57.24-9.96L57.24-9.96Q57.24-13.36 55.16-13.36Z M76.32-14.40L76.32-0.24Q76.32 0.24 72.96 0.24L72.96 0.24Q68.96 0.08 68.96-0.28L68.96-0.28L68.96-14.44L66.92-14.44Q66.12-14.44 66.12-17.20L66.12-17.20Q66.12-17.92 66.26-18.96Q66.40-20 66.84-20L66.84-20L68.96-20L68.96-23.52Q68.96-24.32 72.34-24.32Q75.72-24.32 75.72-23.68L75.72-23.68L75.72-21.12L75.76-20L79.16-20Q79.84-20 79.84-17.20Q79.84-14.40 79.16-14.40L79.16-14.40L76.32-14.40Z M83.58-2.36Q81.08-5.12 81.08-10Q81.08-14.88 83.58-17.64Q86.08-20.40 90.32-20.40Q94.56-20.40 97.04-17.64Q99.52-14.88 99.52-10Q99.52-5.12 97.04-2.36Q94.56 0.40 90.32 0.40Q86.08 0.40 83.58-2.36ZM90.34-13.72Q88.08-13.72 88.08-10.04Q88.08-6.36 90.34-6.36Q92.60-6.36 92.60-10.04Q92.60-13.72 90.34-13.72Z M104.10-2.36Q101.60-5.12 101.60-10Q101.60-14.88 104.10-17.64Q106.60-20.40 110.84-20.40Q115.08-20.40 117.56-17.64Q120.04-14.88 120.04-10Q120.04-5.12 117.56-2.36Q115.08 0.40 110.84 0.40Q106.60 0.40 104.10-2.36ZM110.86-13.72Q108.60-13.72 108.60-10.04Q108.60-6.36 110.86-6.36Q113.12-6.36 113.12-10.04Q113.12-13.72 110.86-13.72Z M131.64-11.20L131.64-0.04Q131.64 0.24 128 0.24L128 0.24Q124.36 0.16 124.36-0.08L124.36-0.08L124.36-13.36L123.28-13.36Q122.64-13.36 122.26-14.14Q121.88-14.92 121.88-16.08L121.88-16.08Q121.88-20.40 124.44-20.40L124.44-20.40Q126.24-20.40 127.44-19.30Q128.64-18.20 128.64-16.80L128.64-16.80Q129.48-18.44 130.90-19.42Q132.32-20.40 133.80-20.40L133.80-20.40Q136.12-20.40 136.60-19.20L136.60-19.20Q136.72-18.88 136.72-18.26Q136.72-17.64 136.34-16.04Q135.96-14.44 135.56-13.72Q135.16-13 135.08-13Q135-13 134.34-13.30Q133.68-13.60 133.16-13.60L133.16-13.60Q131.64-13.60 131.64-11.20L131.64-11.20Z M141.24-14.52L141.24-14.52Q140.12-16.52 140.12-17.78Q140.12-19.04 140.80-19.40L140.80-19.40Q143.08-20.40 147.06-20.40Q151.04-20.40 152.68-18.54Q154.32-16.68 154.32-13.04L154.32-13.04L154.32-6.72L155.68-6.72Q156.36-6.72 156.74-5.92Q157.12-5.12 157.12-3.72Q157.12-2.32 156.42-0.96Q155.72 0.40 154.52 0.40L154.52 0.40Q152.36 0.40 151.04-0.76L151.04-0.76Q150.44-1.24 150.12-1.92L150.12-1.92Q148.28 0.40 144.40 0.40L144.40 0.40Q141.48 0.40 139.48-1.68Q137.48-3.76 137.48-6.60L137.48-6.60Q137.48-13.12 145.28-13.12L145.28-13.12L147.48-13.12L147.48-13.52Q147.48-14.56 147.14-14.86Q146.80-15.16 145.56-15.16L145.56-15.16Q144.04-15.16 141.24-14.52ZM144.44-7.16L144.44-7.16Q144.44-6.28 144.92-5.82Q145.40-5.36 146.14-5.36Q146.88-5.36 147.48-5.96L147.48-5.96L147.48-9.04L146.36-9.04Q144.44-9.04 144.44-7.16Z"/></g>
</svg>
</g><g opacity="1" transform="rotate(0 361 380.1001)">
<svg width="152" height="110.0808" x="361" y="380.1001" version="1.1" preserveAspectRatio="none" viewBox="-249.5 366.8999938964844 89.20001220703125 64.60000610351562">
  <g transform="matrix(1 0 0 1 0 0)" class="aLgOaV3zRcolors-0354a9507-f4a7-4bf0-acae-a46bee352e0e"><switch><g><path d="M-249.5,394.3l16.7,11.7l0.3,24.7l12.6-13.7l17.5,14.5l42.1-64.6L-249.5,394.3z M-238.2,396.1l46.5-14.3l-38.4,20    L-238.2,396.1z M-227.8,406.2l38-19.8l-30.9,24l-7,7.6L-227.8,406.2z M-203.5,424l-12.9-10.7l40.1-31L-203.5,424z"/></g></switch></g>
</svg>
</g></svg>