<?xml version="1.0" encoding="iso-8859-1"?>
<!-- Generator: Adobe Illustrator 23.0.3, SVG Export Plug-In . SVG Version: 6.00 Build 0)  -->
<svg version="1.1" id="Layer_1" xmlns="http://www.w3.org/2000/svg" xmlns:xlink="http://www.w3.org/1999/xlink" x="0px" y="0px"
	 viewBox="0 0 48 48" style="enable-background:new 0 0 48 48;" xml:space="preserve">
<path style="fill:#A5D6A7;" d="M38.812,21.346C38.552,15.592,33.819,11.003,28,11.003s-10.552,4.589-10.812,10.343
	c-6.098,0.236-9.313,4.057-9.313,8.75c0,4.844,3.82,8.772,9.804,8.772c0.153,0,0.305-0.003,0.456-0.008
	c1.376-0.051,2.659,0.541,3.626,1.522c1.588,1.613,3.795,2.614,6.239,2.614s4.65-1.001,6.239-2.614
	c0.966-0.981,2.249-1.573,3.626-1.522c0.151,0.005,0.303,0.008,0.456,0.008c5.985,0,9.804-3.928,9.804-8.772
	C48.125,25.403,44.91,21.583,38.812,21.346z"/>
<circle style="fill:#18193F;" cx="29" cy="19" r="2"/>
<circle style="fill:#18193F;" cx="19" cy="19" r="2"/>
<path style="fill:none;stroke:#18193F;stroke-width:3;stroke-linecap:round;stroke-linejoin:round;" d="M41.875,30.955
	C42.926,29.56,43.5,27.849,43.5,26c0-4.547-3.115-8.249-9.024-8.478C34.224,11.946,29.638,7.5,24,7.5s-10.224,4.446-10.476,10.022"
	/>
<path style="fill:none;stroke:#18193F;stroke-width:3;stroke-linecap:round;stroke-linejoin:round;" d="M7.498,19.518
	C5.519,21.074,4.5,23.399,4.5,26c0,4.694,3.701,8.5,9.5,8.5c0.148,0,0.296-0.003,0.442-0.008c1.333-0.049,2.576,0.524,3.513,1.475
	C19.494,37.53,21.632,38.5,24,38.5s4.506-0.97,6.045-2.533c0.936-0.951,2.179-1.524,3.513-1.475C33.704,34.497,33.852,34.5,34,34.5
	c1.159,0,2.235-0.152,3.214-0.433"/>
<path style="fill:none;stroke:#18193F;stroke-width:3;stroke-linecap:round;stroke-linejoin:round;" d="M16.5,23.5
	c2.046-1.168,3-3,7.5-3s6.459,1.873,8.5,3"/>
<line style="fill:none;stroke:#18193F;stroke-width:3;stroke-linecap:round;stroke-linejoin:round;" x1="15.5" y1="13.5" x2="33.5" y2="13.5"/>
<path style="fill:none;stroke:#18193F;stroke-width:3;stroke-linecap:round;stroke-linejoin:round;" d="M15.5,29.5c4,2,10,3,17,0"/>
<path style="fill:none;stroke:#18193F;stroke-width:3;stroke-linecap:round;stroke-linejoin:round;" d="M13.5,17.5c0,0-0.5,4.5,5,4"
	/>
<path style="fill:none;stroke:#18193F;stroke-width:3;stroke-linecap:round;stroke-linejoin:round;" d="M34.488,17.5
	c0,0,0.5,4.5-5,4"/>
<path style="fill:none;stroke:#18193F;stroke-width:3;stroke-linecap:round;stroke-linejoin:round;" d="M36.003,16c0,0-0.636-7,7-7
	C43.003,9,45.548,16,36.003,16z"/>
</svg>