<svg xmlns="http://www.w3.org/2000/svg" xmlns:xlink="http://www.w3.org/1999/xlink" viewBox="416.7261 173.6885 301.5975 59.123" width="417" height="81.74567428443538" x="41.5px" y="209.1272px" preserveAspectRatio="none"><defs/><style>.aa8CRUGvPqAcolors-02ef0dd5b-9c70-410a-b87d-8a6e965c3d6c {fill:#FFFFFF;fill-opacity:1;}.aa8CRUGvPqAcolors-12ef0dd5b-9c70-410a-b87d-8a6e965c3d6c {fill:#50CB8B;fill-opacity:1;}.aa8CRUGvPqAcolors-22ef0dd5b-9c70-410a-b87d-8a6e965c3d6c {fill:#50CB8B;fill-opacity:0.95;}.aD6z1nYkhcolor2ef0dd5b-9c70-410a-b87d-8a6e965c3d6c {fill:#FFFFFF;fill-opacity:1;}.icon3-str2ef0dd5b-9c70-410a-b87d-8a6e965c3d6c {stroke:#7AE061;stroke-opacity:0.95;}.icon42ef0dd5b-9c70-410a-b87d-8a6e965c3d6c {fill:#64CC4B;fill-opacity:1;}.icon52ef0dd5b-9c70-410a-b87d-8a6e965c3d6c {fill:#9B9BFF;fill-opacity:1;}.icon62ef0dd5b-9c70-410a-b87d-8a6e965c3d6c {fill:#E6FFDF;fill-opacity:0.95;}.icon72ef0dd5b-9c70-410a-b87d-8a6e965c3d6c {fill:#C6C6FF;fill-opacity:1;}.icon82ef0dd5b-9c70-410a-b87d-8a6e965c3d6c {fill:#EFAFAA;fill-opacity:1;}</style><g opacity="1" transform="rotate(0 502.618 173.6885)">
<svg width="215.7056" height="52.123" x="502.618" y="173.6885" version="1.1" preserveAspectRatio="none" viewBox="1.52 -31.48 131.6 31.8">
  <g transform="matrix(1 0 0 1 0 0)" class="aD6z1nYkhcolor2ef0dd5b-9c70-410a-b87d-8a6e965c3d6c"><path id="id-2ef0dd5b-9c70-410a-b87d-8a6e965c3d6cD6z1nYkh6" d="M10.08-5.28L26-5.28L26 0L1.52 0L1.52-4.20L16.88-22.72L1.84-22.72L1.84-28L25.40-28L25.40-23.80L10.08-5.28Z M50.52-10.68Q50.52-10.56 50.40-9L50.40-9L34.12-9Q34.56-7 36.20-5.84Q37.84-4.68 40.28-4.68L40.28-4.68Q41.96-4.68 43.26-5.18Q44.56-5.68 45.68-6.76L45.68-6.76L49-3.16Q45.96 0.32 40.12 0.32L40.12 0.32Q36.48 0.32 33.68-1.10Q30.88-2.52 29.36-5.04Q27.84-7.56 27.84-10.76L27.84-10.76Q27.84-13.92 29.34-16.46Q30.84-19 33.46-20.42Q36.08-21.84 39.32-21.84L39.32-21.84Q42.48-21.84 45.04-20.48Q47.60-19.12 49.06-16.58Q50.52-14.04 50.52-10.68L50.52-10.68ZM39.36-17.12Q37.24-17.12 35.80-15.92Q34.36-14.72 34.04-12.64L34.04-12.64L44.64-12.64Q44.32-14.68 42.88-15.90Q41.44-17.12 39.36-17.12L39.36-17.12Z M67.76-21.84Q71.76-21.84 74.22-19.44Q76.68-17.04 76.68-12.32L76.68-12.32L76.68 0L70.44 0L70.44-11.36Q70.44-13.92 69.32-15.18Q68.20-16.44 66.08-16.44L66.08-16.44Q63.72-16.44 62.32-14.98Q60.92-13.52 60.92-10.64L60.92-10.64L60.92 0L54.68 0L54.68-21.52L60.64-21.52L60.64-19Q61.88-20.36 63.72-21.10Q65.56-21.84 67.76-21.84L67.76-21.84Z M94.52-5.44L96.20-1.04Q95.28-0.36 93.94-0.02Q92.60 0.32 91.12 0.32L91.12 0.32Q87.28 0.32 85.18-1.64Q83.08-3.60 83.08-7.40L83.08-7.40L83.08-16.24L79.76-16.24L79.76-21.04L83.08-21.04L83.08-26.28L89.32-26.28L89.32-21.04L94.68-21.04L94.68-16.24L89.32-16.24L89.32-7.48Q89.32-6.12 90.02-5.38Q90.72-4.64 92-4.64L92-4.64Q93.48-4.64 94.52-5.44L94.52-5.44Z M99.72 0L99.72-21.52L105.96-21.52L105.96 0L99.72 0ZM102.84-24.52Q101.12-24.52 100.04-25.52Q98.96-26.52 98.96-28L98.96-28Q98.96-29.48 100.04-30.48Q101.12-31.48 102.84-31.48L102.84-31.48Q104.56-31.48 105.64-30.52Q106.72-29.56 106.72-28.12L106.72-28.12Q106.72-26.56 105.64-25.54Q104.56-24.52 102.84-24.52L102.84-24.52Z M127.12-21.52L133.12-21.52L124.04 0L117.60 0L108.56-21.52L115.00-21.52L120.96-6.88L127.12-21.52Z"/></g>
</svg>
</g><g opacity="1" transform="rotate(0 416.7261 173.6885)">
<svg width="59.0859" height="59.123" x="416.7261" y="173.6885" version="1.1" preserveAspectRatio="none" viewBox="20 20 160 160.09999084472656">
  <g transform="matrix(1 0 0 1 0 0)"><g><path d="M48.9 147.6c23.8 0 43.5-17.9 46.5-40.9V63.1C89 70.3 79.8 74.8 69.5 74.8H56.8c-2.5 0-4.5-2-4.5-4.5s2-4.5 4.5-4.5h12.8c14.1 0 25.7-11.5 25.7-25.7 0-.5.1-1 .2-1.4V20C53.4 22.4 20 57.3 20 100c0 16.1 4.8 31.8 13.9 45.1 4.8 1.7 9.9 2.5 15 2.5zM79.7 37.4c2.6 0 4.6 2.1 4.6 4.6 0 2.6-2.1 4.6-4.6 4.6-2.6 0-4.6-2.1-4.6-4.6-.1-2.5 2-4.6 4.6-4.6z" data-color="1" class="aa8CRUGvPqAcolors-02ef0dd5b-9c70-410a-b87d-8a6e965c3d6c"/><path d="M151 51.7c4.9 0 9.7.7 14.3 1.9-4.8-6.8-10.7-12.9-17.4-17.9-.4.8-.9 1.7-1.2 2.6-1.6 4.4-1.4 9.3.4 13.6 1.2-.1 2.5-.2 3.9-.2z" data-color="2" class="aa8CRUGvPqAcolors-12ef0dd5b-9c70-410a-b87d-8a6e965c3d6c"/><path d="M140.2 30.7c-10.9-6.3-23.1-10-35.7-10.7v57.4c7.5-11.8 19.4-20.6 33.3-24-2.4-7.6-1.6-15.8 2.4-22.7zm-19.8 12.7c-2.6 0-4.7-2-4.7-4.5 0-2.6 2-4.7 4.5-4.7h.2c2.6 0 4.6 2.2 4.5 4.7 0 2.4-2 4.4-4.5 4.5z" data-color="2" class="aa8CRUGvPqAcolors-12ef0dd5b-9c70-410a-b87d-8a6e965c3d6c"/><path d="M95.5 129.9c-9.8 15.5-26.9 25.8-46.5 25.8-2.3 0-4.6-.2-6.9-.5 13.6 14.3 32.4 23.6 53.4 24.8v-50.1zm-29.1 36.6c-2.6 0-4.7-2-4.7-4.5 0-2.6 2-4.7 4.5-4.7h.2c2.6 0 4.6 2.2 4.5 4.7 0 2.5-2 4.5-4.5 4.5zm19.7-.1h-5.3c-2.5 0-4.5-2-4.5-4.5s2-4.5 4.5-4.5h5.3c2.5 0 4.5 2 4.5 4.5s-2 4.5-4.5 4.5z" data-color="2" class="aa8CRUGvPqAcolors-12ef0dd5b-9c70-410a-b87d-8a6e965c3d6c"/><path d="M113.4 178.7c0-4.7-3.8-8.5-8.5-8.5h-.3v9.9c3-.2 5.9-.5 8.9-1-.1-.2-.1-.3-.1-.4z" data-color="3" class="aa8CRUGvPqAcolors-22ef0dd5b-9c70-410a-b87d-8a6e965c3d6c"/><path d="M151 59.8c-23.6 0-43.1 17.5-46.4 40.3v61.1h.3c9.1 0 16.6 7 17.5 15.8 7.3-2.1 14.2-5.2 20.5-9.3v-69c0-2.5 2-4.5 4.5-4.5s4.5 2 4.5 4.5v62.2c17.2-14.7 28.1-36.5 28.1-60.9 0-12.7-2.9-24.6-8.1-35.3-6.3-3.1-13.4-4.9-20.9-4.9zm-31.4 43.9c-2.6 0-4.7-2-4.7-4.5 0-2.6 2-4.7 4.5-4.7h.2c2.6 0 4.6 2.2 4.5 4.7 0 2.4-2 4.4-4.5 4.5z" data-color="3" class="aa8CRUGvPqAcolors-22ef0dd5b-9c70-410a-b87d-8a6e965c3d6c"/></g></g>
</svg>
</g></svg>